<svg width="1437" height="153" viewBox="0 0 1437 153" fill="none" xmlns="http://www.w3.org/2000/svg">
<mask id="path-1-outside-1_325_126" maskUnits="userSpaceOnUse" x="-0.0620975" y="-0.5" width="1438" height="154" fill="black">
<rect fill="white" x="-0.0620975" y="-0.5" width="1438" height="154"/>
<path d="M98.7379 124.7H46.3379L37.9379 149.5H2.1379L52.9379 9.1H92.5379L143.338 149.5H107.138L98.7379 124.7ZM89.9379 98.3L72.5379 46.9L55.3379 98.3H89.9379ZM151.999 93.5C151.999 82.0333 154.132 71.9667 158.399 63.3C162.799 54.6333 168.732 47.9667 176.199 43.3C183.666 38.6333 191.999 36.3 201.199 36.3C208.532 36.3 215.199 37.8333 221.199 40.9C227.332 43.9667 232.132 48.1 235.599 53.3V1.5H269.799V149.5H235.599V133.5C232.399 138.833 227.799 143.1 221.799 146.3C215.932 149.5 209.066 151.1 201.199 151.1C191.999 151.1 183.666 148.767 176.199 144.1C168.732 139.3 162.799 132.567 158.399 123.9C154.132 115.1 151.999 104.967 151.999 93.5ZM235.599 93.7C235.599 85.1667 233.199 78.4333 228.399 73.5C223.732 68.5667 217.999 66.1 211.199 66.1C204.399 66.1 198.599 68.5667 193.799 73.5C189.132 78.3 186.799 84.9667 186.799 93.5C186.799 102.033 189.132 108.833 193.799 113.9C198.599 118.833 204.399 121.3 211.199 121.3C217.999 121.3 223.732 118.833 228.399 113.9C233.199 108.967 235.599 102.233 235.599 93.7ZM344.741 117.5L368.941 37.9H405.341L365.741 149.5H323.541L283.941 37.9H320.541L344.741 117.5ZM524.936 91.9C524.936 95.1 524.736 98.4333 524.336 101.9H446.936C447.47 108.833 449.67 114.167 453.536 117.9C457.536 121.5 462.403 123.3 468.136 123.3C476.67 123.3 482.603 119.7 485.936 112.5H522.336C520.47 119.833 517.07 126.433 512.136 132.3C507.336 138.167 501.27 142.767 493.936 146.1C486.603 149.433 478.403 151.1 469.336 151.1C458.403 151.1 448.67 148.767 440.136 144.1C431.603 139.433 424.936 132.767 420.136 124.1C415.336 115.433 412.936 105.3 412.936 93.7C412.936 82.1 415.27 71.9667 419.936 63.3C424.736 54.6333 431.403 47.9667 439.936 43.3C448.47 38.6333 458.27 36.3 469.336 36.3C480.136 36.3 489.736 38.5667 498.136 43.1C506.536 47.6333 513.07 54.1 517.736 62.5C522.536 70.9 524.936 80.7 524.936 91.9ZM489.936 82.9C489.936 77.0333 487.936 72.3667 483.936 68.9C479.936 65.4333 474.936 63.7 468.936 63.7C463.203 63.7 458.336 65.3667 454.336 68.7C450.47 72.0333 448.07 76.7667 447.136 82.9H489.936ZM610.979 36.7C624.045 36.7 634.445 40.9667 642.179 49.5C650.045 57.9 653.979 69.5 653.979 84.3V149.5H619.979V88.9C619.979 81.4333 618.045 75.6333 614.179 71.5C610.312 67.3667 605.112 65.3 598.579 65.3C592.045 65.3 586.845 67.3667 582.979 71.5C579.112 75.6333 577.179 81.4333 577.179 88.9V149.5H542.979V37.9H577.179V52.7C580.645 47.7667 585.312 43.9 591.179 41.1C597.045 38.1667 603.645 36.7 610.979 36.7ZM739.944 120.5V149.5H722.544C710.144 149.5 700.477 146.5 693.544 140.5C686.611 134.367 683.144 124.433 683.144 110.7V66.3H669.544V37.9H683.144V10.7H717.344V37.9H739.744V66.3H717.344V111.1C717.344 114.433 718.144 116.833 719.744 118.3C721.344 119.767 724.011 120.5 727.744 120.5H739.944ZM869.194 37.9V149.5H834.994V134.3C831.527 139.233 826.794 143.233 820.794 146.3C814.927 149.233 808.394 150.7 801.194 150.7C792.661 150.7 785.127 148.833 778.594 145.1C772.061 141.233 766.994 135.7 763.394 128.5C759.794 121.3 757.994 112.833 757.994 103.1V37.9H791.994V98.5C791.994 105.967 793.927 111.767 797.794 115.9C801.661 120.033 806.861 122.1 813.394 122.1C820.061 122.1 825.327 120.033 829.194 115.9C833.061 111.767 834.994 105.967 834.994 98.5V37.9H869.194ZM927.96 56.5C931.96 50.3667 936.96 45.5667 942.96 42.1C948.96 38.5 955.626 36.7 962.96 36.7V72.9H953.56C945.026 72.9 938.626 74.7667 934.36 78.5C930.093 82.1 927.96 88.5 927.96 97.7V149.5H893.76V37.9H927.96V56.5ZM1084.51 91.9C1084.51 95.1 1084.31 98.4333 1083.91 101.9H1006.51C1007.04 108.833 1009.24 114.167 1013.11 117.9C1017.11 121.5 1021.97 123.3 1027.71 123.3C1036.24 123.3 1042.17 119.7 1045.51 112.5H1081.91C1080.04 119.833 1076.64 126.433 1071.71 132.3C1066.91 138.167 1060.84 142.767 1053.51 146.1C1046.17 149.433 1037.97 151.1 1028.91 151.1C1017.97 151.1 1008.24 148.767 999.707 144.1C991.173 139.433 984.507 132.767 979.707 124.1C974.907 115.433 972.507 105.3 972.507 93.7C972.507 82.1 974.84 71.9667 979.507 63.3C984.307 54.6333 990.973 47.9667 999.507 43.3C1008.04 38.6333 1017.84 36.3 1028.91 36.3C1039.71 36.3 1049.31 38.5667 1057.71 43.1C1066.11 47.6333 1072.64 54.1 1077.31 62.5C1082.11 70.9 1084.51 80.7 1084.51 91.9ZM1049.51 82.9C1049.51 77.0333 1047.51 72.3667 1043.51 68.9C1039.51 65.4333 1034.51 63.7 1028.51 63.7C1022.77 63.7 1017.91 65.3667 1013.91 68.7C1010.04 72.0333 1007.64 76.7667 1006.71 82.9H1049.51ZM1238.13 53.5C1235.6 48.8333 1231.93 45.3 1227.13 42.9C1222.46 40.3667 1216.93 39.1 1210.53 39.1C1199.46 39.1 1190.6 42.7667 1183.93 50.1C1177.26 57.3 1173.93 66.9667 1173.93 79.1C1173.93 92.0333 1177.4 102.167 1184.33 109.5C1191.4 116.7 1201.06 120.3 1213.33 120.3C1221.73 120.3 1228.8 118.167 1234.53 113.9C1240.4 109.633 1244.66 103.5 1247.33 95.5H1203.93V70.3H1278.33V102.1C1275.8 110.633 1271.46 118.567 1265.33 125.9C1259.33 133.233 1251.66 139.167 1242.33 143.7C1233 148.233 1222.46 150.5 1210.73 150.5C1196.86 150.5 1184.46 147.5 1173.53 141.5C1162.73 135.367 1154.26 126.9 1148.13 116.1C1142.13 105.3 1139.13 92.9667 1139.13 79.1C1139.13 65.2333 1142.13 52.9 1148.13 42.1C1154.26 31.1667 1162.73 22.7 1173.53 16.7C1184.33 10.5667 1196.66 7.49999 1210.53 7.49999C1227.33 7.49999 1241.46 11.5667 1252.93 19.7C1264.53 27.8333 1272.2 39.1 1275.93 53.5H1238.13ZM1363.68 150.9C1350.48 150.9 1338.34 147.833 1327.28 141.7C1316.34 135.567 1307.61 127.033 1301.08 116.1C1294.68 105.033 1291.48 92.6333 1291.48 78.9C1291.48 65.1667 1294.68 52.8333 1301.08 41.9C1307.61 30.9667 1316.34 22.4333 1327.28 16.3C1338.34 10.1667 1350.48 7.1 1363.68 7.1C1376.88 7.1 1388.94 10.1667 1399.88 16.3C1410.94 22.4333 1419.61 30.9667 1425.88 41.9C1432.28 52.8333 1435.48 65.1667 1435.48 78.9C1435.48 92.6333 1432.28 105.033 1425.88 116.1C1419.48 127.033 1410.81 135.567 1399.88 141.7C1388.94 147.833 1376.88 150.9 1363.68 150.9ZM1363.68 119.7C1374.88 119.7 1383.81 115.967 1390.48 108.5C1397.28 101.033 1400.68 91.1667 1400.68 78.9C1400.68 66.5 1397.28 56.6333 1390.48 49.3C1383.81 41.8333 1374.88 38.1 1363.68 38.1C1352.34 38.1 1343.28 41.7667 1336.48 49.1C1329.81 56.4333 1326.48 66.3667 1326.48 78.9C1326.48 91.3 1329.81 101.233 1336.48 108.7C1343.28 116.033 1352.34 119.7 1363.68 119.7Z"/>
</mask>
<path d="M98.7379 124.7H46.3379L37.9379 149.5H2.1379L52.9379 9.1H92.5379L143.338 149.5H107.138L98.7379 124.7ZM89.9379 98.3L72.5379 46.9L55.3379 98.3H89.9379ZM151.999 93.5C151.999 82.0333 154.132 71.9667 158.399 63.3C162.799 54.6333 168.732 47.9667 176.199 43.3C183.666 38.6333 191.999 36.3 201.199 36.3C208.532 36.3 215.199 37.8333 221.199 40.9C227.332 43.9667 232.132 48.1 235.599 53.3V1.5H269.799V149.5H235.599V133.5C232.399 138.833 227.799 143.1 221.799 146.3C215.932 149.5 209.066 151.1 201.199 151.1C191.999 151.1 183.666 148.767 176.199 144.1C168.732 139.3 162.799 132.567 158.399 123.9C154.132 115.1 151.999 104.967 151.999 93.5ZM235.599 93.7C235.599 85.1667 233.199 78.4333 228.399 73.5C223.732 68.5667 217.999 66.1 211.199 66.1C204.399 66.1 198.599 68.5667 193.799 73.5C189.132 78.3 186.799 84.9667 186.799 93.5C186.799 102.033 189.132 108.833 193.799 113.9C198.599 118.833 204.399 121.3 211.199 121.3C217.999 121.3 223.732 118.833 228.399 113.9C233.199 108.967 235.599 102.233 235.599 93.7ZM344.741 117.5L368.941 37.9H405.341L365.741 149.5H323.541L283.941 37.9H320.541L344.741 117.5ZM524.936 91.9C524.936 95.1 524.736 98.4333 524.336 101.9H446.936C447.47 108.833 449.67 114.167 453.536 117.9C457.536 121.5 462.403 123.3 468.136 123.3C476.67 123.3 482.603 119.7 485.936 112.5H522.336C520.47 119.833 517.07 126.433 512.136 132.3C507.336 138.167 501.27 142.767 493.936 146.1C486.603 149.433 478.403 151.1 469.336 151.1C458.403 151.1 448.67 148.767 440.136 144.1C431.603 139.433 424.936 132.767 420.136 124.1C415.336 115.433 412.936 105.3 412.936 93.7C412.936 82.1 415.27 71.9667 419.936 63.3C424.736 54.6333 431.403 47.9667 439.936 43.3C448.47 38.6333 458.27 36.3 469.336 36.3C480.136 36.3 489.736 38.5667 498.136 43.1C506.536 47.6333 513.07 54.1 517.736 62.5C522.536 70.9 524.936 80.7 524.936 91.9ZM489.936 82.9C489.936 77.0333 487.936 72.3667 483.936 68.9C479.936 65.4333 474.936 63.7 468.936 63.7C463.203 63.7 458.336 65.3667 454.336 68.7C450.47 72.0333 448.07 76.7667 447.136 82.9H489.936ZM610.979 36.7C624.045 36.7 634.445 40.9667 642.179 49.5C650.045 57.9 653.979 69.5 653.979 84.3V149.5H619.979V88.9C619.979 81.4333 618.045 75.6333 614.179 71.5C610.312 67.3667 605.112 65.3 598.579 65.3C592.045 65.3 586.845 67.3667 582.979 71.5C579.112 75.6333 577.179 81.4333 577.179 88.9V149.5H542.979V37.9H577.179V52.7C580.645 47.7667 585.312 43.9 591.179 41.1C597.045 38.1667 603.645 36.7 610.979 36.7ZM739.944 120.5V149.5H722.544C710.144 149.5 700.477 146.5 693.544 140.5C686.611 134.367 683.144 124.433 683.144 110.7V66.3H669.544V37.9H683.144V10.7H717.344V37.9H739.744V66.3H717.344V111.1C717.344 114.433 718.144 116.833 719.744 118.3C721.344 119.767 724.011 120.5 727.744 120.5H739.944ZM869.194 37.9V149.5H834.994V134.3C831.527 139.233 826.794 143.233 820.794 146.3C814.927 149.233 808.394 150.7 801.194 150.7C792.661 150.7 785.127 148.833 778.594 145.1C772.061 141.233 766.994 135.7 763.394 128.5C759.794 121.3 757.994 112.833 757.994 103.1V37.9H791.994V98.5C791.994 105.967 793.927 111.767 797.794 115.9C801.661 120.033 806.861 122.1 813.394 122.1C820.061 122.1 825.327 120.033 829.194 115.9C833.061 111.767 834.994 105.967 834.994 98.5V37.9H869.194ZM927.96 56.5C931.96 50.3667 936.96 45.5667 942.96 42.1C948.96 38.5 955.626 36.7 962.96 36.7V72.9H953.56C945.026 72.9 938.626 74.7667 934.36 78.5C930.093 82.1 927.96 88.5 927.96 97.7V149.5H893.76V37.9H927.96V56.5ZM1084.51 91.9C1084.51 95.1 1084.31 98.4333 1083.91 101.9H1006.51C1007.04 108.833 1009.24 114.167 1013.11 117.9C1017.11 121.5 1021.97 123.3 1027.71 123.3C1036.24 123.3 1042.17 119.7 1045.51 112.5H1081.91C1080.04 119.833 1076.64 126.433 1071.71 132.3C1066.91 138.167 1060.84 142.767 1053.51 146.1C1046.17 149.433 1037.97 151.1 1028.91 151.1C1017.97 151.1 1008.24 148.767 999.707 144.1C991.173 139.433 984.507 132.767 979.707 124.1C974.907 115.433 972.507 105.3 972.507 93.7C972.507 82.1 974.84 71.9667 979.507 63.3C984.307 54.6333 990.973 47.9667 999.507 43.3C1008.04 38.6333 1017.84 36.3 1028.91 36.3C1039.71 36.3 1049.31 38.5667 1057.71 43.1C1066.11 47.6333 1072.64 54.1 1077.31 62.5C1082.11 70.9 1084.51 80.7 1084.51 91.9ZM1049.51 82.9C1049.51 77.0333 1047.51 72.3667 1043.51 68.9C1039.51 65.4333 1034.51 63.7 1028.51 63.7C1022.77 63.7 1017.91 65.3667 1013.91 68.7C1010.04 72.0333 1007.64 76.7667 1006.71 82.9H1049.51ZM1238.13 53.5C1235.6 48.8333 1231.93 45.3 1227.13 42.9C1222.46 40.3667 1216.93 39.1 1210.53 39.1C1199.46 39.1 1190.6 42.7667 1183.93 50.1C1177.26 57.3 1173.93 66.9667 1173.93 79.1C1173.93 92.0333 1177.4 102.167 1184.33 109.5C1191.4 116.7 1201.06 120.3 1213.33 120.3C1221.73 120.3 1228.8 118.167 1234.53 113.9C1240.4 109.633 1244.66 103.5 1247.33 95.5H1203.93V70.3H1278.33V102.1C1275.8 110.633 1271.46 118.567 1265.33 125.9C1259.33 133.233 1251.66 139.167 1242.33 143.7C1233 148.233 1222.46 150.5 1210.73 150.5C1196.86 150.5 1184.46 147.5 1173.53 141.5C1162.73 135.367 1154.26 126.9 1148.13 116.1C1142.13 105.3 1139.13 92.9667 1139.13 79.1C1139.13 65.2333 1142.13 52.9 1148.13 42.1C1154.26 31.1667 1162.73 22.7 1173.53 16.7C1184.33 10.5667 1196.66 7.49999 1210.53 7.49999C1227.33 7.49999 1241.46 11.5667 1252.93 19.7C1264.53 27.8333 1272.2 39.1 1275.93 53.5H1238.13ZM1363.68 150.9C1350.48 150.9 1338.34 147.833 1327.28 141.7C1316.34 135.567 1307.61 127.033 1301.08 116.1C1294.68 105.033 1291.48 92.6333 1291.48 78.9C1291.48 65.1667 1294.68 52.8333 1301.08 41.9C1307.61 30.9667 1316.34 22.4333 1327.28 16.3C1338.34 10.1667 1350.48 7.1 1363.68 7.1C1376.88 7.1 1388.94 10.1667 1399.88 16.3C1410.94 22.4333 1419.61 30.9667 1425.88 41.9C1432.28 52.8333 1435.48 65.1667 1435.48 78.9C1435.48 92.6333 1432.28 105.033 1425.88 116.1C1419.48 127.033 1410.81 135.567 1399.88 141.7C1388.94 147.833 1376.88 150.9 1363.68 150.9ZM1363.68 119.7C1374.88 119.7 1383.81 115.967 1390.48 108.5C1397.28 101.033 1400.68 91.1667 1400.68 78.9C1400.68 66.5 1397.28 56.6333 1390.48 49.3C1383.81 41.8333 1374.88 38.1 1363.68 38.1C1352.34 38.1 1343.28 41.7667 1336.48 49.1C1329.81 56.4333 1326.48 66.3667 1326.48 78.9C1326.48 91.3 1329.81 101.233 1336.48 108.7C1343.28 116.033 1352.34 119.7 1363.68 119.7Z" fill="url(#paint0_linear_325_126)" fill-opacity="0.07"/>
<path d="M98.7379 124.7L100.159 124.219L99.8136 123.2H98.7379V124.7ZM46.3379 124.7V123.2H45.2623L44.9172 124.219L46.3379 124.7ZM37.9379 149.5V151H39.0135L39.3586 149.981L37.9379 149.5ZM2.1379 149.5L0.727393 148.99L-5.96046e-07 151H2.1379V149.5ZM52.9379 9.1V7.6H51.8855L51.5274 8.58964L52.9379 9.1ZM92.5379 9.1L93.9484 8.58964L93.5903 7.6H92.5379V9.1ZM143.338 149.5V151H145.476L144.748 148.99L143.338 149.5ZM107.138 149.5L105.717 149.981L106.062 151H107.138V149.5ZM89.9379 98.3V99.8H92.0293L91.3587 97.819L89.9379 98.3ZM72.5379 46.9L73.9587 46.419L72.5297 42.1977L71.1154 46.424L72.5379 46.9ZM55.3379 98.3L53.9154 97.824L53.2542 99.8H55.3379V98.3ZM98.7379 124.7V123.2H46.3379V124.7V126.2H98.7379V124.7ZM46.3379 124.7L44.9172 124.219L36.5172 149.019L37.9379 149.5L39.3586 149.981L47.7586 125.181L46.3379 124.7ZM37.9379 149.5V148H2.1379V149.5V151H37.9379V149.5ZM2.1379 149.5L3.54841 150.01L54.3484 9.61035L52.9379 9.1L51.5274 8.58964L0.727393 148.99L2.1379 149.5ZM52.9379 9.1V10.6H92.5379V9.1V7.6H52.9379V9.1ZM92.5379 9.1L91.1274 9.61035L141.927 150.01L143.338 149.5L144.748 148.99L93.9484 8.58964L92.5379 9.1ZM143.338 149.5V148H107.138V149.5V151H143.338V149.5ZM107.138 149.5L108.559 149.019L100.159 124.219L98.7379 124.7L97.3172 125.181L105.717 149.981L107.138 149.5ZM89.9379 98.3L91.3587 97.819L73.9587 46.419L72.5379 46.9L71.1171 47.381L88.5171 98.781L89.9379 98.3ZM72.5379 46.9L71.1154 46.424L53.9154 97.824L55.3379 98.3L56.7604 98.776L73.9604 47.376L72.5379 46.9ZM55.3379 98.3V99.8H89.9379V98.3V96.8H55.3379V98.3ZM158.399 63.3L157.061 62.621L157.057 62.6292L157.053 62.6375L158.399 63.3ZM176.199 43.3L176.994 44.572L176.199 43.3ZM221.199 40.9L220.516 42.2357L220.528 42.2416L221.199 40.9ZM235.599 53.3L234.351 54.132L237.099 58.2542V53.3H235.599ZM235.599 1.5V0H234.099V1.5H235.599ZM269.799 1.5H271.299V0H269.799V1.5ZM269.799 149.5V151H271.299V149.5H269.799ZM235.599 149.5H234.099V151H235.599V149.5ZM235.599 133.5H237.099V128.085L234.313 132.728L235.599 133.5ZM221.799 146.3L221.093 144.976L221.081 144.983L221.799 146.3ZM176.199 144.1L175.388 145.362L175.396 145.367L175.404 145.372L176.199 144.1ZM158.399 123.9L157.049 124.554L157.055 124.567L157.061 124.579L158.399 123.9ZM228.399 73.5L227.309 74.5308L227.316 74.5385L227.324 74.546L228.399 73.5ZM193.799 73.5L192.724 72.454L192.723 72.4544L193.799 73.5ZM193.799 113.9L192.696 114.916L192.709 114.931L192.724 114.946L193.799 113.9ZM228.399 113.9L227.324 112.854L227.316 112.862L227.309 112.869L228.399 113.9ZM151.999 93.5H153.499C153.499 82.2204 155.597 72.388 159.745 63.9625L158.399 63.3L157.053 62.6375C152.668 71.5453 150.499 81.8462 150.499 93.5H151.999ZM158.399 63.3L159.736 63.979C164.026 55.5297 169.782 49.0793 176.994 44.572L176.199 43.3L175.404 42.028C167.682 46.854 161.572 53.737 157.061 62.621L158.399 63.3ZM176.199 43.3L176.994 44.572C184.211 40.0612 192.267 37.8 201.199 37.8V36.3V34.8C191.731 34.8 183.12 37.2055 175.404 42.028L176.199 43.3ZM201.199 36.3V37.8C208.316 37.8 214.746 39.2863 220.516 42.2356L221.199 40.9L221.882 39.5643C215.652 36.3803 208.748 34.8 201.199 34.8V36.3ZM221.199 40.9L220.528 42.2416C226.451 45.2032 231.043 49.1699 234.351 54.132L235.599 53.3L236.847 52.4679C233.222 47.03 228.213 42.7301 221.87 39.5583L221.199 40.9ZM235.599 53.3H237.099V1.5H235.599H234.099V53.3H235.599ZM235.599 1.5V3H269.799V1.5V0H235.599V1.5ZM269.799 1.5H268.299V149.5H269.799H271.299V1.5H269.799ZM269.799 149.5V148H235.599V149.5V151H269.799V149.5ZM235.599 149.5H237.099V133.5H235.599H234.099V149.5H235.599ZM235.599 133.5L234.313 132.728C231.265 137.807 226.876 141.892 221.093 144.976L221.799 146.3L222.505 147.624C228.722 144.308 233.532 139.86 236.885 134.272L235.599 133.5ZM221.799 146.3L221.081 144.983C215.47 148.043 208.859 149.6 201.199 149.6V151.1V152.6C209.272 152.6 216.394 150.957 222.517 147.617L221.799 146.3ZM201.199 151.1V149.6C192.267 149.6 184.211 147.339 176.994 142.828L176.199 144.1L175.404 145.372C183.12 150.195 191.731 152.6 201.199 152.6V151.1ZM176.199 144.1L177.01 142.838C169.788 138.196 164.028 131.673 159.736 123.221L158.399 123.9L157.061 124.579C161.57 133.46 167.676 140.404 175.388 145.362L176.199 144.1ZM158.399 123.9L159.749 123.246C155.596 114.682 153.499 104.779 153.499 93.5H151.999H150.499C150.499 105.154 152.668 115.518 157.049 124.554L158.399 123.9ZM235.599 93.7H237.099C237.099 84.8747 234.608 77.7309 229.474 72.454L228.399 73.5L227.324 74.546C231.789 79.1357 234.099 85.4586 234.099 93.7H235.599ZM228.399 73.5L229.489 72.4692C224.538 67.2359 218.41 64.6 211.199 64.6V66.1V67.6C217.587 67.6 222.926 69.8974 227.309 74.5308L228.399 73.5ZM211.199 66.1V64.6C203.988 64.6 197.802 67.2344 192.724 72.454L193.799 73.5L194.874 74.546C199.395 69.8989 204.809 67.6 211.199 67.6V66.1ZM193.799 73.5L192.723 72.4544C187.715 77.6056 185.299 84.6882 185.299 93.5H186.799H188.299C188.299 85.2451 190.549 78.9944 194.874 74.5456L193.799 73.5ZM186.799 93.5H185.299C185.299 102.316 187.716 109.51 192.696 114.916L193.799 113.9L194.902 112.884C190.548 108.156 188.299 101.751 188.299 93.5H186.799ZM193.799 113.9L192.724 114.946C197.802 120.166 203.988 122.8 211.199 122.8V121.3V119.8C204.809 119.8 199.395 117.501 194.874 112.854L193.799 113.9ZM211.199 121.3V122.8C218.41 122.8 224.538 120.164 229.489 114.931L228.399 113.9L227.309 112.869C222.926 117.503 217.587 119.8 211.199 119.8V121.3ZM228.399 113.9L229.474 114.946C234.608 109.669 237.099 102.525 237.099 93.7H235.599H234.099C234.099 101.941 231.789 108.264 227.324 112.854L228.399 113.9ZM344.741 117.5L343.306 117.936L344.741 122.657L346.176 117.936L344.741 117.5ZM368.941 37.9V36.4H367.829L367.506 37.4637L368.941 37.9ZM405.341 37.9L406.755 38.4016L407.465 36.4H405.341V37.9ZM365.741 149.5V151H366.8L367.155 150.002L365.741 149.5ZM323.541 149.5L322.127 150.002L322.482 151H323.541V149.5ZM283.941 37.9V36.4H281.817L282.527 38.4016L283.941 37.9ZM320.541 37.9L321.976 37.4637L321.653 36.4H320.541V37.9ZM344.741 117.5L346.176 117.936L370.376 38.3363L368.941 37.9L367.506 37.4637L343.306 117.064L344.741 117.5ZM368.941 37.9V39.4H405.341V37.9V36.4H368.941V37.9ZM405.341 37.9L403.927 37.3984L364.327 148.998L365.741 149.5L367.155 150.002L406.755 38.4016L405.341 37.9ZM365.741 149.5V148H323.541V149.5V151H365.741V149.5ZM323.541 149.5L324.955 148.998L285.355 37.3984L283.941 37.9L282.527 38.4016L322.127 150.002L323.541 149.5ZM283.941 37.9V39.4H320.541V37.9V36.4H283.941V37.9ZM320.541 37.9L319.106 38.3363L343.306 117.936L344.741 117.5L346.176 117.064L321.976 37.4637L320.541 37.9ZM524.336 101.9V103.4H525.673L525.826 102.072L524.336 101.9ZM446.936 101.9V100.4H445.317L445.441 102.015L446.936 101.9ZM453.536 117.9L452.494 118.979L452.513 118.997L452.533 119.015L453.536 117.9ZM485.936 112.5V111H484.978L484.575 111.87L485.936 112.5ZM522.336 112.5L523.79 112.87L524.266 111H522.336V112.5ZM512.136 132.3L510.988 131.335L510.982 131.342L510.975 131.35L512.136 132.3ZM493.936 146.1L494.557 147.466L493.936 146.1ZM440.136 144.1L439.417 145.416L440.136 144.1ZM420.136 124.1L421.449 123.373L420.136 124.1ZM419.936 63.3L418.624 62.5732L418.62 62.581L418.616 62.5889L419.936 63.3ZM439.936 43.3L440.656 44.6161L439.936 43.3ZM498.136 43.1L497.424 44.42L498.136 43.1ZM517.736 62.5L516.425 63.2285L516.429 63.2364L516.434 63.2442L517.736 62.5ZM489.936 82.9V84.4H491.436V82.9H489.936ZM483.936 68.9L484.919 67.7665L483.936 68.9ZM454.336 68.7L453.376 67.5477L453.366 67.5557L453.357 67.5639L454.336 68.7ZM447.136 82.9L445.653 82.6743L445.391 84.4H447.136V82.9ZM524.936 91.9H523.436C523.436 95.0377 523.24 98.3134 522.846 101.728L524.336 101.9L525.826 102.072C526.232 98.5533 526.436 95.1623 526.436 91.9H524.936ZM524.336 101.9V100.4H446.936V101.9V103.4H524.336V101.9ZM446.936 101.9L445.441 102.015C445.994 109.204 448.294 114.923 452.494 118.979L453.536 117.9L454.578 116.821C451.046 113.41 448.946 108.463 448.432 101.785L446.936 101.9ZM453.536 117.9L452.533 119.015C456.827 122.88 462.059 124.8 468.136 124.8V123.3V121.8C462.747 121.8 458.245 120.12 454.54 116.785L453.536 117.9ZM468.136 123.3V124.8C472.615 124.8 476.515 123.854 479.764 121.882C483.021 119.906 485.524 116.961 487.298 113.13L485.936 112.5L484.575 111.87C483.015 115.239 480.885 117.694 478.208 119.318C475.525 120.946 472.191 121.8 468.136 121.8V123.3ZM485.936 112.5V114H522.336V112.5V111H485.936V112.5ZM522.336 112.5L520.883 112.13C519.072 119.241 515.778 125.639 510.988 131.335L512.136 132.3L513.284 133.265C518.361 127.228 521.867 120.425 523.79 112.87L522.336 112.5ZM512.136 132.3L510.975 131.35C506.33 137.028 500.453 141.49 493.316 144.734L493.936 146.1L494.557 147.466C502.087 144.043 508.342 139.306 513.297 133.25L512.136 132.3ZM493.936 146.1L493.316 144.734C486.2 147.969 478.216 149.6 469.336 149.6V151.1V152.6C478.59 152.6 487.006 150.898 494.557 147.466L493.936 146.1ZM469.336 151.1V149.6C458.623 149.6 449.142 147.316 440.856 142.784L440.136 144.1L439.417 145.416C448.197 150.218 458.183 152.6 469.336 152.6V151.1ZM440.136 144.1L440.856 142.784C432.577 138.256 426.114 131.796 421.449 123.373L420.136 124.1L418.824 124.827C423.759 133.737 430.629 140.61 439.417 145.416L440.136 144.1ZM420.136 124.1L421.449 123.373C416.791 114.964 414.436 105.089 414.436 93.7H412.936H411.436C411.436 105.511 413.881 115.902 418.824 124.827L420.136 124.1ZM412.936 93.7H414.436C414.436 82.3039 416.727 72.4233 421.257 64.0111L419.936 63.3L418.616 62.5889C413.812 71.51 411.436 81.8961 411.436 93.7H412.936ZM419.936 63.3L421.249 64.0267C425.914 55.6038 432.377 49.1437 440.656 44.6161L439.936 43.3L439.217 41.9839C430.429 46.7896 423.559 53.6629 418.624 62.5732L419.936 63.3ZM439.936 43.3L440.656 44.6161C448.94 40.0859 458.486 37.8 469.336 37.8V36.3V34.8C458.053 34.8 448 37.1808 439.217 41.9839L439.936 43.3ZM469.336 36.3V37.8C479.921 37.8 489.27 40.0196 497.424 44.42L498.136 43.1L498.849 41.78C490.202 37.1137 480.352 34.8 469.336 34.8V36.3ZM498.136 43.1L497.424 44.42C505.57 48.8164 511.897 55.077 516.425 63.2285L517.736 62.5L519.048 61.7715C514.243 53.123 507.503 46.4503 498.849 41.78L498.136 43.1ZM517.736 62.5L516.434 63.2442C521.085 71.384 523.436 80.9194 523.436 91.9H524.936H526.436C526.436 80.4806 523.987 70.416 519.039 61.7558L517.736 62.5ZM489.936 82.9H491.436C491.436 76.6512 489.285 71.5509 484.919 67.7665L483.936 68.9L482.954 70.0335C486.587 73.1824 488.436 77.4155 488.436 82.9H489.936ZM483.936 68.9L484.919 67.7665C480.61 64.0318 475.246 62.2 468.936 62.2V63.7V65.2C474.627 65.2 479.263 66.8348 482.954 70.0335L483.936 68.9ZM468.936 63.7V62.2C462.89 62.2 457.673 63.9665 453.376 67.5477L454.336 68.7L455.297 69.8523C458.999 66.7668 463.516 65.2 468.936 65.2V63.7ZM454.336 68.7L453.357 67.5639C449.164 71.1785 446.629 76.2665 445.653 82.6743L447.136 82.9L448.619 83.1257C449.511 77.2668 451.775 72.8882 455.316 69.8361L454.336 68.7ZM447.136 82.9V84.4H489.936V82.9V81.4H447.136V82.9ZM642.179 49.5L641.067 50.5073L641.075 50.5164L641.084 50.5253L642.179 49.5ZM653.979 149.5V151H655.479V149.5H653.979ZM619.979 149.5H618.479V151H619.979V149.5ZM614.179 71.5L613.083 72.5247L614.179 71.5ZM582.979 71.5L584.074 72.5247L582.979 71.5ZM577.179 149.5V151H578.679V149.5H577.179ZM542.979 149.5H541.479V151H542.979V149.5ZM542.979 37.9V36.4H541.479V37.9H542.979ZM577.179 37.9H578.679V36.4H577.179V37.9ZM577.179 52.7H575.679V57.4436L578.406 53.5624L577.179 52.7ZM591.179 41.1L591.825 42.4537L591.837 42.4478L591.849 42.4416L591.179 41.1ZM610.979 36.7V38.2C623.685 38.2 633.658 42.3316 641.067 50.5073L642.179 49.5L643.29 48.4927C635.233 39.6018 624.406 35.2 610.979 35.2V36.7ZM642.179 49.5L641.084 50.5253C648.622 58.5747 652.479 69.768 652.479 84.3H653.979H655.479C655.479 69.232 651.468 57.2253 643.273 48.4747L642.179 49.5ZM653.979 84.3H652.479V149.5H653.979H655.479V84.3H653.979ZM653.979 149.5V148H619.979V149.5V151H653.979V149.5ZM619.979 149.5H621.479V88.9H619.979H618.479V149.5H619.979ZM619.979 88.9H621.479C621.479 81.1775 619.475 74.9658 615.274 70.4753L614.179 71.5L613.083 72.5247C616.616 76.3008 618.479 81.6892 618.479 88.9H619.979ZM614.179 71.5L615.274 70.4753C611.079 65.9911 605.457 63.8 598.579 63.8V65.3V66.8C604.767 66.8 609.545 68.7423 613.083 72.5247L614.179 71.5ZM598.579 65.3V63.8C591.7 63.8 586.078 65.9911 581.883 70.4753L582.979 71.5L584.074 72.5247C587.612 68.7423 592.39 66.8 598.579 66.8V65.3ZM582.979 71.5L581.883 70.4753C577.682 74.9658 575.679 81.1775 575.679 88.9H577.179H578.679C578.679 81.6892 580.541 76.3008 584.074 72.5247L582.979 71.5ZM577.179 88.9H575.679V149.5H577.179H578.679V88.9H577.179ZM577.179 149.5V148H542.979V149.5V151H577.179V149.5ZM542.979 149.5H544.479V37.9H542.979H541.479V149.5H542.979ZM542.979 37.9V39.4H577.179V37.9V36.4H542.979V37.9ZM577.179 37.9H575.679V52.7H577.179H578.679V37.9H577.179ZM577.179 52.7L578.406 53.5624C581.713 48.8565 586.172 45.1516 591.825 42.4537L591.179 41.1L590.532 39.7463C584.452 42.6484 579.578 46.6769 575.951 51.8376L577.179 52.7ZM591.179 41.1L591.849 42.4416C597.484 39.6242 603.85 38.2 610.979 38.2V36.7V35.2C603.44 35.2 596.606 36.7091 590.508 39.7583L591.179 41.1ZM739.944 120.5H741.444V119H739.944V120.5ZM739.944 149.5V151H741.444V149.5H739.944ZM693.544 140.5L692.55 141.623L692.556 141.629L692.563 141.634L693.544 140.5ZM683.144 66.3H684.644V64.8H683.144V66.3ZM669.544 66.3H668.044V67.8H669.544V66.3ZM669.544 37.9V36.4H668.044V37.9H669.544ZM683.144 37.9V39.4H684.644V37.9H683.144ZM683.144 10.7V9.2H681.644V10.7H683.144ZM717.344 10.7H718.844V9.2H717.344V10.7ZM717.344 37.9H715.844V39.4H717.344V37.9ZM739.744 37.9H741.244V36.4H739.744V37.9ZM739.744 66.3V67.8H741.244V66.3H739.744ZM717.344 66.3V64.8H715.844V66.3H717.344ZM719.744 118.3L718.731 119.406L719.744 118.3ZM739.944 120.5H738.444V149.5H739.944H741.444V120.5H739.944ZM739.944 149.5V148H722.544V149.5V151H739.944V149.5ZM722.544 149.5V148C710.377 148 701.103 145.058 694.526 139.366L693.544 140.5L692.563 141.634C699.852 147.942 709.911 151 722.544 151V149.5ZM693.544 140.5L694.538 139.377C688.056 133.643 684.644 124.214 684.644 110.7H683.144H681.644C681.644 124.653 685.166 135.091 692.55 141.623L693.544 140.5ZM683.144 110.7H684.644V66.3H683.144H681.644V110.7H683.144ZM683.144 66.3V64.8H669.544V66.3V67.8H683.144V66.3ZM669.544 66.3H671.044V37.9H669.544H668.044V66.3H669.544ZM669.544 37.9V39.4H683.144V37.9V36.4H669.544V37.9ZM683.144 37.9H684.644V10.7H683.144H681.644V37.9H683.144ZM683.144 10.7V12.2H717.344V10.7V9.2H683.144V10.7ZM717.344 10.7H715.844V37.9H717.344H718.844V10.7H717.344ZM717.344 37.9V39.4H739.744V37.9V36.4H717.344V37.9ZM739.744 37.9H738.244V66.3H739.744H741.244V37.9H739.744ZM739.744 66.3V64.8H717.344V66.3V67.8H739.744V66.3ZM717.344 66.3H715.844V111.1H717.344H718.844V66.3H717.344ZM717.344 111.1H715.844C715.844 114.63 716.687 117.533 718.731 119.406L719.744 118.3L720.758 117.194C719.601 116.134 718.844 114.236 718.844 111.1H717.344ZM719.744 118.3L718.731 119.406C720.748 121.255 723.884 122 727.744 122V120.5V119C724.137 119 721.94 118.278 720.758 117.194L719.744 118.3ZM727.744 120.5V122H739.944V120.5V119H727.744V120.5ZM869.194 37.9H870.694V36.4H869.194V37.9ZM869.194 149.5V151H870.694V149.5H869.194ZM834.994 149.5H833.494V151H834.994V149.5ZM834.994 134.3H836.494V129.556L833.767 133.438L834.994 134.3ZM820.794 146.3L821.465 147.642L821.477 147.636L820.794 146.3ZM778.594 145.1L777.83 146.391L777.84 146.397L777.85 146.402L778.594 145.1ZM763.394 128.5L762.053 129.171L763.394 128.5ZM757.994 37.9V36.4H756.494V37.9H757.994ZM791.994 37.9H793.494V36.4H791.994V37.9ZM797.794 115.9L796.699 116.925L797.794 115.9ZM829.194 115.9L828.099 114.875L829.194 115.9ZM834.994 37.9V36.4H833.494V37.9H834.994ZM869.194 37.9H867.694V149.5H869.194H870.694V37.9H869.194ZM869.194 149.5V148H834.994V149.5V151H869.194V149.5ZM834.994 149.5H836.494V134.3H834.994H833.494V149.5H834.994ZM834.994 134.3L833.767 133.438C830.456 138.149 825.92 141.996 820.111 144.964L820.794 146.3L821.477 147.636C827.668 144.471 832.599 140.318 836.221 135.162L834.994 134.3ZM820.794 146.3L820.123 144.958C814.485 147.778 808.184 149.2 801.194 149.2V150.7V152.2C808.604 152.2 815.37 150.689 821.465 147.642L820.794 146.3ZM801.194 150.7V149.2C792.886 149.2 785.616 147.385 779.338 143.798L778.594 145.1L777.85 146.402C784.639 150.282 792.435 152.2 801.194 152.2V150.7ZM778.594 145.1L779.358 143.809C773.088 140.098 768.215 134.788 764.736 127.829L763.394 128.5L762.053 129.171C765.773 136.612 771.033 142.368 777.83 146.391L778.594 145.1ZM763.394 128.5L764.736 127.829C761.259 120.877 759.494 112.649 759.494 103.1H757.994H756.494C756.494 113.018 758.329 121.723 762.053 129.171L763.394 128.5ZM757.994 103.1H759.494V37.9H757.994H756.494V103.1H757.994ZM757.994 37.9V39.4H791.994V37.9V36.4H757.994V37.9ZM791.994 37.9H790.494V98.5H791.994H793.494V37.9H791.994ZM791.994 98.5H790.494C790.494 106.223 792.498 112.434 796.699 116.925L797.794 115.9L798.89 114.875C795.357 111.099 793.494 105.711 793.494 98.5H791.994ZM797.794 115.9L796.699 116.925C800.894 121.409 806.516 123.6 813.394 123.6V122.1V120.6C807.206 120.6 802.428 118.658 798.89 114.875L797.794 115.9ZM813.394 122.1V123.6C820.396 123.6 826.089 121.415 830.29 116.925L829.194 115.9L828.099 114.875C824.566 118.651 819.726 120.6 813.394 120.6V122.1ZM829.194 115.9L830.29 116.925C834.49 112.434 836.494 106.223 836.494 98.5H834.994H833.494C833.494 105.711 831.631 111.099 828.099 114.875L829.194 115.9ZM834.994 98.5H836.494V37.9H834.994H833.494V98.5H834.994ZM834.994 37.9V39.4H869.194V37.9V36.4H834.994V37.9ZM927.96 56.5H926.46V61.5459L929.216 57.3194L927.96 56.5ZM942.96 42.1L943.71 43.3988L943.721 43.3926L943.732 43.3862L942.96 42.1ZM962.96 36.7H964.46V35.2H962.96V36.7ZM962.96 72.9V74.4H964.46V72.9H962.96ZM934.36 78.5L935.327 79.6464L935.337 79.6377L935.348 79.6289L934.36 78.5ZM927.96 149.5V151H929.46V149.5H927.96ZM893.76 149.5H892.26V151H893.76V149.5ZM893.76 37.9V36.4H892.26V37.9H893.76ZM927.96 37.9H929.46V36.4H927.96V37.9ZM927.96 56.5L929.216 57.3194C933.095 51.3719 937.926 46.7409 943.71 43.3988L942.96 42.1L942.209 40.8012C935.994 44.3924 930.825 49.3614 926.703 55.6806L927.96 56.5ZM942.96 42.1L943.732 43.3862C949.487 39.933 955.885 38.2 962.96 38.2V36.7V35.2C955.368 35.2 948.433 37.067 942.188 40.8138L942.96 42.1ZM962.96 36.7H961.46V72.9H962.96H964.46V36.7H962.96ZM962.96 72.9V71.4H953.56V72.9V74.4H962.96V72.9ZM953.56 72.9V71.4C944.841 71.4 938.021 73.3029 933.372 77.3711L934.36 78.5L935.348 79.6289C939.232 76.2304 945.212 74.4 953.56 74.4V72.9ZM934.36 78.5L933.392 77.3536C928.621 81.3797 926.46 88.3376 926.46 97.7H927.96H929.46C929.46 88.6624 931.565 82.8203 935.327 79.6464L934.36 78.5ZM927.96 97.7H926.46V149.5H927.96H929.46V97.7H927.96ZM927.96 149.5V148H893.76V149.5V151H927.96V149.5ZM893.76 149.5H895.26V37.9H893.76H892.26V149.5H893.76ZM893.76 37.9V39.4H927.96V37.9V36.4H893.76V37.9ZM927.96 37.9H926.46V56.5H927.96H929.46V37.9H927.96ZM1083.91 101.9V103.4H1085.24L1085.4 102.072L1083.91 101.9ZM1006.51 101.9V100.4H1004.89L1005.01 102.015L1006.51 101.9ZM1013.11 117.9L1012.06 118.979L1012.08 118.997L1012.1 119.015L1013.11 117.9ZM1045.51 112.5V111H1044.55L1044.15 111.87L1045.51 112.5ZM1081.91 112.5L1083.36 112.87L1083.84 111H1081.91V112.5ZM1071.71 132.3L1070.56 131.335L1070.55 131.342L1070.55 131.35L1071.71 132.3ZM1053.51 146.1L1054.13 147.466L1053.51 146.1ZM999.707 144.1L998.987 145.416L999.707 144.1ZM979.707 124.1L981.019 123.373L979.707 124.1ZM979.507 63.3L978.194 62.5732L978.19 62.581L978.186 62.5889L979.507 63.3ZM999.507 43.3L1000.23 44.6161L999.507 43.3ZM1057.71 43.1L1056.99 44.42L1057.71 43.1ZM1077.31 62.5L1076 63.2285L1076 63.2364L1076 63.2442L1077.31 62.5ZM1049.51 82.9V84.4H1051.01V82.9H1049.51ZM1043.51 68.9L1044.49 67.7665L1043.51 68.9ZM1013.91 68.7L1012.95 67.5477L1012.94 67.5557L1012.93 67.5639L1013.91 68.7ZM1006.71 82.9L1005.22 82.6743L1004.96 84.4H1006.71V82.9ZM1084.51 91.9H1083.01C1083.01 95.0377 1082.81 98.3134 1082.42 101.728L1083.91 101.9L1085.4 102.072C1085.8 98.5533 1086.01 95.1623 1086.01 91.9H1084.51ZM1083.91 101.9V100.4H1006.51V101.9V103.4H1083.91V101.9ZM1006.51 101.9L1005.01 102.015C1005.56 109.204 1007.86 114.923 1012.06 118.979L1013.11 117.9L1014.15 116.821C1010.62 113.41 1008.52 108.463 1008 101.785L1006.51 101.9ZM1013.11 117.9L1012.1 119.015C1016.4 122.88 1021.63 124.8 1027.71 124.8V123.3V121.8C1022.32 121.8 1017.82 120.12 1014.11 116.785L1013.11 117.9ZM1027.71 123.3V124.8C1032.18 124.8 1036.08 123.854 1039.33 121.882C1042.59 119.906 1045.09 116.961 1046.87 113.13L1045.51 112.5L1044.15 111.87C1042.59 115.239 1040.46 117.694 1037.78 119.318C1035.1 120.946 1031.76 121.8 1027.71 121.8V123.3ZM1045.51 112.5V114H1081.91V112.5V111H1045.51V112.5ZM1081.91 112.5L1080.45 112.13C1078.64 119.241 1075.35 125.639 1070.56 131.335L1071.71 132.3L1072.85 133.265C1077.93 127.228 1081.44 120.425 1083.36 112.87L1081.91 112.5ZM1071.71 132.3L1070.55 131.35C1065.9 137.028 1060.02 141.49 1052.89 144.734L1053.51 146.1L1054.13 147.466C1061.66 144.043 1067.91 139.306 1072.87 133.25L1071.71 132.3ZM1053.51 146.1L1052.89 144.734C1045.77 147.969 1037.79 149.6 1028.91 149.6V151.1V152.6C1038.16 152.6 1046.58 150.898 1054.13 147.466L1053.51 146.1ZM1028.91 151.1V149.6C1018.19 149.6 1008.71 147.316 1000.43 142.784L999.707 144.1L998.987 145.416C1007.77 150.218 1017.75 152.6 1028.91 152.6V151.1ZM999.707 144.1L1000.43 142.784C992.147 138.256 985.684 131.796 981.019 123.373L979.707 124.1L978.394 124.827C983.329 133.737 990.199 140.61 998.987 145.416L999.707 144.1ZM979.707 124.1L981.019 123.373C976.362 114.964 974.007 105.089 974.007 93.7H972.507H971.007C971.007 105.511 973.452 115.902 978.394 124.827L979.707 124.1ZM972.507 93.7H974.007C974.007 82.3039 976.298 72.4233 980.827 64.0111L979.507 63.3L978.186 62.5889C973.382 71.51 971.007 81.8961 971.007 93.7H972.507ZM979.507 63.3L980.819 64.0267C985.484 55.6038 991.947 49.1437 1000.23 44.6161L999.507 43.3L998.787 41.9839C989.999 46.7896 983.129 53.6629 978.194 62.5732L979.507 63.3ZM999.507 43.3L1000.23 44.6161C1008.51 40.0859 1018.06 37.8 1028.91 37.8V36.3V34.8C1017.62 34.8 1007.57 37.1808 998.787 41.9839L999.507 43.3ZM1028.91 36.3V37.8C1039.49 37.8 1048.84 40.0196 1056.99 44.42L1057.71 43.1L1058.42 41.78C1049.77 37.1137 1039.92 34.8 1028.91 34.8V36.3ZM1057.71 43.1L1056.99 44.42C1065.14 48.8164 1071.47 55.077 1076 63.2285L1077.31 62.5L1078.62 61.7715C1073.81 53.123 1067.07 46.4503 1058.42 41.78L1057.71 43.1ZM1077.31 62.5L1076 63.2442C1080.66 71.384 1083.01 80.9194 1083.01 91.9H1084.51H1086.01C1086.01 80.4806 1083.56 70.416 1078.61 61.7558L1077.31 62.5ZM1049.51 82.9H1051.01C1051.01 76.6512 1048.86 71.5509 1044.49 67.7665L1043.51 68.9L1042.52 70.0335C1046.16 73.1824 1048.01 77.4155 1048.01 82.9H1049.51ZM1043.51 68.9L1044.49 67.7665C1040.18 64.0318 1034.82 62.2 1028.51 62.2V63.7V65.2C1034.2 65.2 1038.83 66.8348 1042.52 70.0335L1043.51 68.9ZM1028.51 63.7V62.2C1022.46 62.2 1017.24 63.9665 1012.95 67.5477L1013.91 68.7L1014.87 69.8523C1018.57 66.7668 1023.09 65.2 1028.51 65.2V63.7ZM1013.91 68.7L1012.93 67.5639C1008.73 71.1785 1006.2 76.2665 1005.22 82.6743L1006.71 82.9L1008.19 83.1257C1009.08 77.2668 1011.35 72.8882 1014.89 69.8361L1013.91 68.7ZM1006.71 82.9V84.4H1049.51V82.9V81.4H1006.71V82.9ZM1238.13 53.5L1236.81 54.2156L1237.24 55H1238.13V53.5ZM1227.13 42.9L1226.42 44.2183L1226.44 44.2303L1226.46 44.2416L1227.13 42.9ZM1183.93 50.1L1185.03 51.1192L1185.04 51.109L1183.93 50.1ZM1184.33 109.5L1183.24 110.531L1183.25 110.541L1183.26 110.551L1184.33 109.5ZM1234.53 113.9L1233.65 112.687L1233.64 112.692L1233.64 112.697L1234.53 113.9ZM1247.33 95.5L1248.75 95.9743L1249.41 94H1247.33V95.5ZM1203.93 95.5H1202.43V97H1203.93V95.5ZM1203.93 70.3V68.8H1202.43V70.3H1203.93ZM1278.33 70.3H1279.83V68.8H1278.33V70.3ZM1278.33 102.1L1279.77 102.527L1279.83 102.318V102.1H1278.33ZM1265.33 125.9L1264.18 124.938L1264.18 124.944L1264.17 124.95L1265.33 125.9ZM1242.33 143.7L1241.68 142.351L1242.33 143.7ZM1173.53 141.5L1172.79 142.804L1172.8 142.81L1172.81 142.815L1173.53 141.5ZM1148.13 116.1L1146.82 116.828L1146.83 116.841L1148.13 116.1ZM1148.13 42.1L1146.82 41.3661L1146.82 41.3715L1148.13 42.1ZM1173.53 16.7L1174.26 18.0113L1174.27 18.0043L1173.53 16.7ZM1252.93 19.7L1252.06 20.9235L1252.07 20.9282L1252.93 19.7ZM1275.93 53.5V55H1277.87L1277.38 53.1236L1275.93 53.5ZM1238.13 53.5L1239.45 52.7844C1236.77 47.8446 1232.87 44.0942 1227.8 41.5583L1227.13 42.9L1226.46 44.2416C1230.99 46.5058 1234.43 49.8221 1236.81 54.2156L1238.13 53.5ZM1227.13 42.9L1227.85 41.5817C1222.92 38.9069 1217.13 37.6 1210.53 37.6V39.1V40.6C1216.73 40.6 1222.01 41.8264 1226.42 44.2183L1227.13 42.9ZM1210.53 39.1V37.6C1199.1 37.6 1189.81 41.4066 1182.82 49.091L1183.93 50.1L1185.04 51.109C1191.39 44.1267 1199.83 40.6 1210.53 40.6V39.1ZM1183.93 50.1L1182.83 49.0809C1175.85 56.62 1172.43 66.6824 1172.43 79.1H1173.93H1175.43C1175.43 67.2509 1178.68 57.98 1185.03 51.1191L1183.93 50.1ZM1173.93 79.1H1172.43C1172.43 92.3045 1175.98 102.847 1183.24 110.531L1184.33 109.5L1185.42 108.469C1178.82 101.487 1175.43 91.7621 1175.43 79.1H1173.93ZM1184.33 109.5L1183.26 110.551C1190.67 118.098 1200.76 121.8 1213.33 121.8V120.3V118.8C1201.37 118.8 1192.13 115.302 1185.4 108.449L1184.33 109.5ZM1213.33 120.3V121.8C1222 121.8 1229.39 119.595 1235.43 115.103L1234.53 113.9L1233.64 112.697C1228.2 116.738 1221.47 118.8 1213.33 118.8V120.3ZM1234.53 113.9L1235.41 115.113C1241.57 110.634 1246.01 104.221 1248.75 95.9743L1247.33 95.5L1245.91 95.0257C1243.32 102.779 1239.22 108.633 1233.65 112.687L1234.53 113.9ZM1247.33 95.5V94H1203.93V95.5V97H1247.33V95.5ZM1203.93 95.5H1205.43V70.3H1203.93H1202.43V95.5H1203.93ZM1203.93 70.3V71.8H1278.33V70.3V68.8H1203.93V70.3ZM1278.33 70.3H1276.83V102.1H1278.33H1279.83V70.3H1278.33ZM1278.33 102.1L1276.89 101.673C1274.42 109.996 1270.19 117.75 1264.18 124.938L1265.33 125.9L1266.48 126.862C1272.74 119.384 1277.17 111.271 1279.77 102.527L1278.33 102.1ZM1265.33 125.9L1264.17 124.95C1258.32 132.1 1250.83 137.903 1241.68 142.351L1242.33 143.7L1242.99 145.049C1252.5 140.43 1260.34 134.367 1266.49 126.85L1265.33 125.9ZM1242.33 143.7L1241.68 142.351C1232.57 146.773 1222.27 149 1210.73 149V150.5V152C1222.66 152 1233.42 149.694 1242.99 145.049L1242.33 143.7ZM1210.73 150.5V149C1197.09 149 1184.94 146.05 1174.25 140.185L1173.53 141.5L1172.81 142.815C1183.99 148.95 1196.64 152 1210.73 152V150.5ZM1173.53 141.5L1174.27 140.196C1163.71 134.196 1155.44 125.924 1149.44 115.359L1148.13 116.1L1146.83 116.841C1153.09 127.876 1161.76 136.537 1172.79 142.804L1173.53 141.5ZM1148.13 116.1L1149.44 115.372C1143.58 104.821 1140.63 92.7435 1140.63 79.1H1139.13H1137.63C1137.63 93.1898 1140.68 105.779 1146.82 116.828L1148.13 116.1ZM1139.13 79.1H1140.63C1140.63 65.4565 1143.58 53.3794 1149.44 42.8285L1148.13 42.1L1146.82 41.3715C1140.68 52.4206 1137.63 65.0102 1137.63 79.1H1139.13ZM1148.13 42.1L1149.44 42.8339C1155.44 32.1392 1163.71 23.8741 1174.26 18.0112L1173.53 16.7L1172.8 15.3888C1161.76 21.5258 1153.09 30.1941 1146.82 41.3661L1148.13 42.1ZM1173.53 16.7L1174.27 18.0043C1184.82 12.0137 1196.89 8.99999 1210.53 8.99999V7.49999V5.99999C1196.44 5.99999 1183.84 9.11964 1172.79 15.3957L1173.53 16.7ZM1210.53 7.49999V8.99999C1227.08 8.99999 1240.9 13.0029 1252.06 20.9235L1252.93 19.7L1253.8 18.4765C1242.03 10.1304 1227.58 5.99999 1210.53 5.99999V7.49999ZM1252.93 19.7L1252.07 20.9282C1263.36 28.846 1270.83 39.8028 1274.48 53.8764L1275.93 53.5L1277.38 53.1236C1273.57 38.3972 1265.7 26.8207 1253.79 18.4718L1252.93 19.7ZM1275.93 53.5V52H1238.13V53.5V55H1275.93V53.5ZM1327.28 141.7L1326.54 143.008L1326.55 143.012L1327.28 141.7ZM1301.08 116.1L1299.78 116.851L1299.78 116.86L1299.79 116.869L1301.08 116.1ZM1301.08 41.9L1299.79 41.1305L1299.78 41.1422L1301.08 41.9ZM1327.28 16.3L1326.55 14.988L1326.54 14.9918L1327.28 16.3ZM1399.88 16.3L1399.14 17.6082L1399.15 17.612L1399.88 16.3ZM1425.88 41.9L1424.57 42.6459L1424.58 42.6578L1425.88 41.9ZM1425.88 116.1L1427.17 116.858L1427.17 116.851L1425.88 116.1ZM1399.88 141.7L1400.61 143.008L1399.88 141.7ZM1390.48 108.5L1389.37 107.49L1389.36 107.495L1389.36 107.501L1390.48 108.5ZM1390.48 49.3L1389.36 50.299L1389.37 50.3095L1389.38 50.3199L1390.48 49.3ZM1336.48 49.1L1335.38 48.0801L1335.37 48.0855L1335.37 48.091L1336.48 49.1ZM1336.48 108.7L1335.36 109.699L1335.37 109.71L1335.38 109.72L1336.48 108.7ZM1363.68 150.9V149.4C1350.72 149.4 1338.84 146.393 1328 140.388L1327.28 141.7L1326.55 143.012C1337.85 149.274 1350.23 152.4 1363.68 152.4V150.9ZM1327.28 141.7L1328.01 140.392C1317.31 134.389 1308.76 126.043 1302.36 115.331L1301.08 116.1L1299.79 116.869C1306.45 128.024 1315.38 136.745 1326.54 143.008L1327.28 141.7ZM1301.08 116.1L1302.37 115.349C1296.12 104.528 1292.98 92.3899 1292.98 78.9H1291.48H1289.98C1289.98 92.8768 1293.24 105.539 1299.78 116.851L1301.08 116.1ZM1291.48 78.9H1292.98C1292.98 65.4099 1296.12 53.3421 1302.37 42.6578L1301.08 41.9L1299.78 41.1422C1293.24 52.3246 1289.98 64.9234 1289.98 78.9H1291.48ZM1301.08 41.9L1302.36 42.6694C1308.76 31.9572 1317.31 23.6113 1328.01 17.6082L1327.28 16.3L1326.54 14.9918C1315.38 21.2554 1306.45 29.9761 1299.79 41.1306L1301.08 41.9ZM1327.28 16.3L1328 17.612C1338.84 11.6074 1350.72 8.6 1363.68 8.6V7.1V5.6C1350.23 5.6 1337.85 8.72594 1326.55 14.988L1327.28 16.3ZM1363.68 7.1V8.6C1376.63 8.6 1388.44 11.6074 1399.14 17.6082L1399.88 16.3L1400.61 14.9918C1389.44 8.72598 1377.12 5.6 1363.68 5.6V7.1ZM1399.88 16.3L1399.15 17.612C1409.98 23.6131 1418.44 31.9512 1424.57 42.6459L1425.88 41.9L1427.18 41.1541C1420.77 29.9822 1411.91 21.2535 1400.6 14.988L1399.88 16.3ZM1425.88 41.9L1424.58 42.6578C1430.84 53.3421 1433.98 65.4099 1433.98 78.9H1435.48H1436.98C1436.98 64.9234 1433.72 52.3246 1427.17 41.1422L1425.88 41.9ZM1435.48 78.9H1433.98C1433.98 92.3899 1430.84 104.528 1424.58 115.349L1425.88 116.1L1427.17 116.851C1433.72 105.539 1436.98 92.8768 1436.98 78.9H1435.48ZM1425.88 116.1L1424.58 115.342C1418.31 126.048 1409.84 134.39 1399.14 140.392L1399.88 141.7L1400.61 143.008C1411.78 136.743 1420.64 128.019 1427.17 116.858L1425.88 116.1ZM1399.88 141.7L1399.14 140.392C1388.44 146.393 1376.63 149.4 1363.68 149.4V150.9V152.4C1377.12 152.4 1389.44 149.274 1400.61 143.008L1399.88 141.7ZM1363.68 119.7V121.2C1375.25 121.2 1384.61 117.324 1391.59 109.499L1390.48 108.5L1389.36 107.501C1383.01 114.609 1374.5 118.2 1363.68 118.2V119.7ZM1390.48 108.5L1391.58 109.51C1398.69 101.711 1402.18 91.456 1402.18 78.9H1400.68H1399.18C1399.18 90.8773 1395.86 100.356 1389.37 107.49L1390.48 108.5ZM1400.68 78.9H1402.18C1402.18 66.2168 1398.69 55.9534 1391.58 48.2801L1390.48 49.3L1389.38 50.3199C1395.86 57.3133 1399.18 66.7832 1399.18 78.9H1400.68ZM1390.48 49.3L1391.59 48.301C1384.61 40.4757 1375.25 36.6 1363.68 36.6V38.1V39.6C1374.5 39.6 1383.01 43.191 1389.36 50.299L1390.48 49.3ZM1363.68 38.1V36.6C1351.99 36.6 1342.5 40.3984 1335.38 48.0801L1336.48 49.1L1337.58 50.1199C1344.05 43.1349 1352.7 39.6 1363.68 39.6V38.1ZM1336.48 49.1L1335.37 48.091C1328.39 55.7678 1324.98 66.0959 1324.98 78.9H1326.48H1327.98C1327.98 66.6374 1331.23 57.0988 1337.59 50.109L1336.48 49.1ZM1326.48 78.9H1324.98C1324.98 91.5768 1328.39 101.896 1335.36 109.699L1336.48 108.7L1337.59 107.701C1331.23 100.571 1327.98 91.0231 1327.98 78.9H1326.48ZM1336.48 108.7L1335.38 109.72C1342.5 117.402 1351.99 121.2 1363.68 121.2V119.7V118.2C1352.7 118.2 1344.05 114.665 1337.58 107.68L1336.48 108.7Z" fill="white" fill-opacity="0.06" mask="url(#path-1-outside-1_325_126)"/>
<defs>
<linearGradient id="paint0_linear_325_126" x1="963.438" y1="-70.5" x2="963.438" y2="190.5" gradientUnits="userSpaceOnUse">
<stop stop-color="white"/>
<stop offset="1"/>
</linearGradient>
</defs>
</svg>
